<svg version="1.1" xmlns="http://www.w3.org/2000/svg" xmlns:xlink="http://www.w3.org/1999/xlink" stroke-linecap="round" stroke-linejoin="round" stroke-width="0" fill-rule="evenodd" width="2.74in" height="2.63in" viewBox="5 0 2740 2630" id="A6agnqb7-szpBQX2XWKZ"><defs><mask id="A6agnqb7-szpBQX2XWKZ_clear-1" fill="#000" stroke="#000"><g><rect x="5" y="0" width="2740" height="2630" fill="#fff"/><path d="M 2645 2615 2625 2615 2606 2611 2588 2604 2571 2593 2557 2579 2546 2562 2539 2544 2535 2525 2535 2505 2539 2486 2546 2468 2557 2451 2571 2437 2588 2426 2606 2419 2625 2415 2645 2415 2664 2419 2682 2426 2699 2437 2713 2451 2724 2468 2731 2486 2735 2505 2735 2525 2731 2544 2724 2562 2713 2579 2699 2593 2682 2604 2664 2611 2645 2615"/><path d="M 135 2610 115 2610 96 2606 78 2599 61 2588 47 2574 36 2557 29 2539 25 2520 25 2500 29 2481 36 2463 47 2446 61 2432 78 2421 96 2414 115 2410 135 2410 154 2414 172 2421 189 2432 203 2446 214 2463 221 2481 225 2500 225 2520 221 2539 214 2557 203 2574 189 2588 172 2599 154 2606 135 2610"/><path d="M 310 2505 302 2504 295 2501 289 2496 114 2321 109 2315 106 2308 105 2300 105 1260 88 1260 88 1167 182 1167 182 1260 165 1260 165 2287 323 2445 2201 2445 2250 2396 2247 2392 2239 2396 2227 2400 2214 2400 2201 2396 2190 2390 2181 2381 2174 2369 2174 2368 2169 2368 2168 2369 2162 2381 2152 2390 2141 2396 2128 2400 2115 2400 2103 2396 2091 2390 2082 2381 2076 2369 2075 2368 2070 2368 2070 2369 2063 2381 2054 2390 2043 2396 2030 2400 2017 2400 2004 2396 1993 2390 1984 2381 1977 2369 1974 2357 1974 2343 1977 2331 1984 2319 1993 2310 2004 2304 2017 2300 2030 2300 2043 2304 2054 2310 2063 2319 2070 2331 2070 2332 2075 2332 2076 2331 2082 2319 2091 2310 2092 2310 2092 2279 2068 2256 1926 2256 1918 2255 1911 2252 1905 2247 1648 1990 1461 2176 1455 2181 1448 2184 1440 2185 500 2185 492 2184 485 2181 479 2176 428 2126 369 2126 369 2024 394 2024 395 2019 389 2016 379 2006 373 1995 369 1982 369 1968 373 1955 379 1944 389 1934 400 1928 401 1928 401 1923 400 1922 389 1916 379 1906 373 1895 369 1882 369 1868 373 1855 379 1844 389 1834 400 1828 401 1827 401 1822 400 1822 389 1816 379 1806 373 1795 369 1782 369 1768 373 1755 379 1744 389 1734 400 1728 401 1727 401 1722 400 1722 389 1716 379 1706 373 1695 369 1682 369 1668 373 1655 379 1644 389 1634 400 1628 401 1628 401 1622 400 1622 389 1616 379 1606 373 1595 369 1582 369 1568 373 1555 379 1544 389 1534 400 1528 401 1528 401 1523 400 1522 389 1516 379 1506 373 1495 369 1482 369 1468 370 1467 230 1327 225 1321 222 1314 221 1306 221 1178 188 1145 67 1145 59 1144 52 1141 45 1136 45 1136 34 1125 29 1118 26 1111 25 1103 25 636 25 632 25 632 25 627 26 581 32 531 42 482 56 433 73 386 94 340 119 297 147 255 178 215 212 178 249 144 289 113 295 109 298 106 298 106 299 106 309 102 317 94 317 94 323 89 331 86 338 85 338 85 2137 85 2145 86 2152 89 2158 94 2481 416 2485 414 2485 408 2489 396 2495 384 2504 375 2516 368 2528 365 2542 365 2554 368 2566 375 2575 384 2581 396 2585 408 2585 421 2581 434 2575 445 2566 454 2554 461 2553 461 2553 466 2554 467 2566 473 2575 483 2581 494 2585 507 2585 520 2581 532 2575 544 2566 553 2554 559 2553 560 2553 565 2554 565 2566 572 2575 581 2581 592 2585 605 2585 618 2585 618 2616 650 2621 656 2624 664 2625 672 2625 891 2624 899 2621 906 2616 912 2512 1017 2515 1021 2516 1020 2528 1017 2542 1017 2554 1020 2566 1027 2575 1036 2581 1047 2585 1060 2585 1073 2581 1086 2575 1097 2566 1106 2554 1113 2553 1113 2553 1118 2554 1119 2566 1125 2575 1134 2581 1146 2585 1158 2585 1172 2581 1184 2575 1196 2566 1205 2554 1211 2553 1212 2553 1217 2554 1217 2566 1224 2575 1233 2581 1244 2585 1257 2585 1270 2581 1283 2575 1294 2566 1303 2554 1310 2553 1310 2553 1315 2554 1316 2566 1322 2575 1331 2581 1343 2585 1355 2585 1368 2581 1381 2575 1392 2566 1402 2559 1406 2560 1411 2585 1411 2585 1510 2485 1510 2485 1411 2510 1411 2511 1406 2504 1402 2495 1392 2489 1381 2485 1368 2485 1363 2480 1361 2476 1364 2468 1367 2460 1368 1972 1368 1969 1373 1974 1382 1978 1394 1978 1406 1974 1418 1968 1429 1959 1438 1952 1442 1952 1448 1959 1452 1968 1461 1974 1472 1978 1484 1978 1496 1974 1508 1968 1519 1959 1528 1959 1534 1959 1534 1959 1535 2072 1535 2079 1528 2079 1519 2082 1507 2088 1497 2097 1488 2107 1482 2119 1479 2131 1479 2143 1482 2153 1488 2162 1497 2168 1507 2171 1519 2171 1531 2168 1543 2164 1550 2167 1555 2169 1554 2181 1554 2193 1557 2203 1563 2212 1572 2218 1582 2221 1594 2221 1606 2218 1618 2212 1628 2203 1637 2193 1643 2181 1646 2172 1646 2136 1681 2130 1686 2123 1689 2115 1690 1958 1690 1956 1695 1959 1697 1967 1705 2412 1705 2419 1706 2427 1709 2433 1714 2481 1761 2485 1759 2485 1753 2489 1741 2495 1729 2504 1720 2516 1714 2528 1710 2542 1710 2554 1714 2566 1720 2575 1729 2581 1741 2585 1753 2585 1767 2581 1779 2575 1791 2566 1800 2554 1806 2553 1807 2553 1812 2554 1812 2566 1819 2575 1828 2581 1839 2585 1852 2585 1865 2581 1878 2575 1889 2566 1898 2554 1905 2553 1905 2553 1910 2554 1911 2566 1917 2575 1926 2581 1938 2585 1950 2585 1963 2581 1976 2575 1987 2566 1997 2554 2003 2542 2007 2528 2007 2516 2003 2504 1997 2495 1987 2489 1976 2485 1963 2485 1950 2489 1938 2495 1926 2504 1917 2516 1911 2517 1910 2517 1905 2516 1905 2504 1898 2495 1889 2489 1878 2485 1865 2485 1852 2485 1852 2399 1765 2247 1765 2245 1770 2247 1771 2254 1778 2259 1786 2261 1795 2189 1795 2191 1786 2196 1778 2203 1771 2205 1770 2203 1765 2162 1765 2160 1770 2162 1772 2168 1782 2171 1794 2171 1806 2168 1818 2164 1825 2167 1830 2169 1829 2181 1829 2193 1832 2203 1838 2212 1847 2218 1857 2221 1869 2221 1881 2218 1893 2212 1903 2203 1912 2193 1918 2181 1921 2169 1921 2157 1918 2147 1912 2140 1905 1976 1905 1973 1910 1974 1912 1978 1924 1978 1936 1974 1948 1968 1959 1959 1968 1948 1974 1936 1978 1924 1978 1912 1974 1901 1968 1892 1959 1886 1948 1882 1936 1882 1924 1886 1912 1892 1901 1901 1892 1912 1886 1914 1885 1914 1880 1912 1879 1901 1873 1892 1864 1886 1853 1882 1841 1882 1829 1886 1817 1892 1806 1901 1797 1912 1791 1924 1787 1924 1783 1912 1779 1901 1773 1893 1765 1743 1765 1678 1830 1678 1841 1674 1853 1668 1864 1659 1873 1648 1879 1646 1880 1646 1885 1648 1886 1659 1892 1668 1901 1674 1912 1678 1924 1678 1935 1939 2196 2081 2196 2089 2197 2096 2200 2102 2205 2143 2245 2143 2245 2148 2252 2151 2259 2152 2267 2152 2267 2152 2310 2152 2310 2162 2319 2168 2331 2169 2332 2174 2332 2174 2331 2181 2319 2190 2310 2190 2310 2190 2228 2097 2135 1962 2135 1954 2143 1943 2149 1931 2153 1919 2153 1907 2149 1896 2143 1887 2134 1881 2123 1877 2111 1877 2099 1881 2087 1887 2076 1896 2067 1907 2061 1919 2057 1931 2057 1943 2061 1954 2067 1962 2075 2110 2075 2118 2076 2125 2079 2131 2084 2242 2194 2246 2200 2250 2207 2251 2215 2251 2310 2251 2310 2260 2319 2267 2331 2270 2343 2270 2357 2267 2369 2262 2376 2266 2380 2485 2161 2485 2104 2585 2104 2585 2203 2528 2203 2235 2496 2229 2501 2222 2504 2214 2505 310 2505 310 2505"/><path d="M 1930 2390 1930 2390 1930 2355 1965 2355 1965 2355 1962 2365 1957 2374 1949 2382 1940 2387 1930 2390"/><path d="M 1920 2390 1920 2390 1910 2387 1901 2382 1893 2374 1888 2365 1885 2355 1885 2355 1920 2355 1920 2390"/><path d="M 1965 2345 1930 2345 1930 2310 1930 2310 1940 2313 1949 2318 1957 2326 1962 2335 1965 2345 1965 2345"/><path d="M 1920 2345 1885 2345 1885 2345 1888 2335 1893 2326 1901 2318 1910 2313 1920 2310 1920 2310 1920 2345"/><path d="M 1876 2400 1777 2400 1777 2300 1876 2300 1876 2400"/><path d="M 1630 2143 1630 2110 1663 2110 1660 2119 1655 2128 1648 2135 1639 2140 1630 2143"/><path d="M 1620 2143 1611 2140 1602 2135 1595 2128 1590 2119 1587 2110 1620 2110 1620 2143"/><path d="M 1663 2100 1630 2100 1630 2067 1639 2070 1648 2075 1655 2082 1660 2091 1663 2100"/><path d="M 1620 2100 1587 2100 1590 2091 1595 2082 1602 2075 1611 2070 1620 2067 1620 2100"/><path d="M 2540 2095 2540 2095 2540 2060 2575 2060 2575 2061 2572 2071 2567 2080 2559 2087 2550 2092 2540 2095"/><path d="M 2530 2095 2530 2095 2520 2092 2511 2087 2503 2080 2498 2071 2495 2061 2495 2060 2530 2060 2530 2095"/><path d="M 2575 2050 2540 2050 2540 2016 2540 2016 2550 2018 2559 2024 2567 2031 2572 2040 2575 2050 2575 2050"/><path d="M 2530 2050 2495 2050 2495 2050 2498 2040 2503 2031 2511 2024 2520 2018 2530 2016 2530 2016 2530 2050"/><path d="M 2230 1836 2230 1805 2261 1805 2259 1814 2254 1822 2247 1829 2239 1834 2230 1836"/><path d="M 2220 1836 2211 1834 2203 1829 2196 1822 2191 1814 2189 1805 2220 1805 2220 1836"/><path d="M 2230 1561 2230 1530 2261 1530 2259 1539 2254 1547 2247 1554 2239 1559 2230 1561"/><path d="M 2220 1561 2211 1559 2203 1554 2196 1547 2191 1539 2189 1530 2220 1530 2220 1561"/><path d="M 2261 1520 2230 1520 2230 1489 2239 1491 2247 1496 2254 1503 2259 1511 2261 1520"/><path d="M 2220 1520 2189 1520 2191 1511 2196 1503 2203 1496 2211 1491 2220 1489 2220 1520"/><path d="M 2650 240 2630 240 2611 236 2593 229 2576 218 2562 204 2551 187 2544 169 2540 150 2540 130 2544 111 2551 93 2562 76 2576 62 2593 51 2611 44 2630 40 2650 40 2669 44 2687 51 2704 62 2718 76 2729 93 2736 111 2740 130 2740 150 2736 169 2729 187 2718 204 2704 218 2687 229 2669 236 2650 240"/></g></mask><mask id="A6agnqb7-szpBQX2XWKZ_clear-2" fill="#000" stroke="#000"><g><rect x="5" y="0" width="2740" height="2630" fill="#fff"/><path d="M 1415 2116 1415 2116 1404 2113 1395 2108 1387 2100 1382 2091 1379 2080 1379 2080 1415 2080 1415 2116"/><path d="M 1461 2070 1425 2070 1425 2034 1425 2034 1436 2037 1445 2042 1453 2050 1458 2059 1461 2070 1461 2070"/><path d="M 1415 2070 1379 2070 1379 2070 1382 2059 1387 2050 1395 2042 1404 2037 1415 2034 1415 2034 1415 2070"/><path d="M 1625 1773 1616 1770 1607 1765 1600 1758 1595 1749 1592 1740 1625 1740 1625 1773"/><path d="M 1668 1730 1635 1730 1635 1697 1644 1700 1653 1705 1660 1712 1665 1721 1668 1730"/><path d="M 1625 1730 1592 1730 1595 1721 1600 1712 1607 1705 1616 1700 1625 1697 1625 1730"/><path d="M 1425 1516 1425 1516 1425 1480 1461 1480 1461 1480 1458 1491 1453 1500 1445 1508 1436 1513 1425 1516"/><path d="M 1461 1470 1425 1470 1425 1434 1425 1434 1436 1437 1445 1442 1453 1450 1458 1459 1461 1470 1461 1470"/><path d="M 1415 1470 1379 1470 1379 1470 1382 1459 1387 1450 1395 1442 1404 1437 1415 1434 1415 1434 1415 1470"/><path d="M 140 1053 140 1022 172 1022 169 1031 164 1039 157 1046 149 1051 140 1053"/><path d="M 130 1053 121 1051 113 1046 106 1039 101 1031 98 1022 130 1022 130 1053"/><path d="M 172 1012 140 1012 140 980 149 982 157 987 164 994 169 1002 172 1012"/><path d="M 130 1012 98 1012 101 1002 106 994 113 987 121 982 130 980 130 1012"/><path d="M 425 816 425 816 425 780 461 780 461 780 458 791 453 800 445 808 436 813 425 816"/><path d="M 415 816 415 816 404 813 395 808 387 800 382 791 379 780 379 780 415 780 415 816"/><path d="M 213 940 114 940 114 840 142 840 143 835 133 830 124 820 118 809 114 797 114 783 118 771 124 760 133 750 145 744 157 740 170 740 183 744 194 750 203 760 210 771 213 783 213 797 210 809 203 820 194 830 184 835 185 840 213 840 213 940"/><path d="M 461 770 425 770 425 734 425 734 436 737 445 742 453 750 458 759 461 770 461 770"/><path d="M 415 770 379 770 379 770 382 759 387 750 395 742 404 737 415 734 415 734 415 770"/><path d="M 169 640 169 640 169 605 203 605 203 605 201 615 195 624 188 632 179 637 169 640"/><path d="M 159 640 159 640 148 637 139 632 132 624 127 615 124 605 124 605 159 605 159 640"/><path d="M 203 595 169 595 169 560 169 560 179 563 188 568 195 576 201 585 203 595 203 595"/><path d="M 159 595 124 595 124 595 127 585 132 576 139 568 148 563 159 560 159 560 159 595"/><path d="M 427 726 413 726 400 722 389 716 379 706 373 695 369 682 369 668 373 655 379 644 389 634 400 628 401 627 401 623 400 622 389 616 379 606 373 595 369 582 369 568 373 555 379 544 389 534 400 528 401 527 401 522 400 522 389 516 379 506 373 495 369 482 369 468 373 455 379 444 389 434 400 428 401 428 401 423 400 422 389 416 379 406 373 395 369 382 369 368 373 355 379 344 389 334 400 328 401 327 401 322 400 322 389 316 379 306 373 295 369 282 369 268 373 255 379 244 389 234 400 228 413 224 427 224 440 228 451 234 461 244 467 255 471 268 471 282 467 295 461 306 451 316 440 322 439 322 439 327 440 328 451 334 461 344 467 355 471 368 471 382 467 395 461 406 451 416 440 422 439 423 439 428 440 428 451 434 461 444 467 455 471 468 471 482 467 495 461 506 451 516 440 522 439 522 439 527 440 528 451 534 461 544 467 555 471 568 471 582 467 595 461 606 451 616 440 622 439 623 439 627 440 628 451 634 461 644 467 655 471 668 471 682 467 695 461 706 451 716 440 722 427 726"/><path d="M 2181 1301 2169 1301 2157 1298 2147 1292 2138 1283 2132 1273 2129 1261 2129 1249 2132 1237 2136 1230 2133 1225 2131 1226 2119 1226 2107 1223 2097 1217 2090 1210 1993 1210 1978 1225 1978 1236 1974 1248 1968 1259 1959 1268 1948 1274 1936 1278 1924 1278 1912 1274 1901 1268 1892 1259 1886 1248 1882 1236 1882 1224 1886 1212 1892 1201 1901 1192 1912 1186 1914 1185 1914 1180 1912 1179 1901 1173 1892 1164 1886 1153 1882 1141 1882 1129 1886 1117 1892 1106 1901 1097 1912 1091 1924 1087 1935 1087 1937 1086 1943 1081 1950 1078 1954 1077 1958 1077 1958 1077 2277 1077 2285 1078 2292 1081 2298 1086 2326 1114 2331 1120 2334 1127 2335 1131 2335 1135 2335 1135 2335 1243 2334 1251 2331 1258 2326 1265 2326 1265 2315 1276 2308 1281 2301 1284 2293 1285 2210 1285 2203 1292 2193 1298 2181 1301"/></g></mask><mask id="A6agnqb7-szpBQX2XWKZ_clear-3" fill="#000" stroke="#000"><g><rect x="5" y="0" width="2740" height="2630" fill="#fff"/><path d="M 2230 1216 2230 1185 2261 1185 2259 1194 2254 1202 2247 1209 2239 1214 2230 1216"/><path d="M 2220 1216 2211 1214 2203 1209 2196 1202 2191 1194 2189 1185 2220 1185 2220 1216"/><path d="M 2261 1175 2230 1175 2230 1144 2239 1146 2247 1151 2254 1158 2259 1166 2261 1175"/><path d="M 2220 1175 2189 1175 2191 1166 2196 1158 2203 1151 2211 1146 2220 1144 2220 1175"/><path d="M 2230 936 2230 905 2261 905 2259 914 2254 922 2247 929 2239 934 2230 936"/><path d="M 2220 936 2211 934 2203 929 2196 922 2191 914 2189 905 2220 905 2220 936"/><path d="M 2261 895 2230 895 2230 864 2239 866 2247 871 2254 878 2259 886 2261 895"/><path d="M 2220 895 2189 895 2191 886 2196 878 2203 871 2211 866 2220 864 2220 895"/><path d="M 1636 733 1624 733 1612 729 1601 723 1592 714 1586 703 1582 691 1582 679 1586 667 1592 656 1601 647 1612 641 1624 637 1624 633 1612 629 1601 623 1592 614 1586 603 1582 591 1582 579 1586 567 1592 556 1601 547 1612 541 1624 537 1636 537 1648 541 1659 547 1668 556 1674 567 1678 579 1678 591 1674 603 1668 614 1659 623 1648 629 1636 633 1636 637 1648 641 1659 647 1668 656 1674 667 1678 679 1678 691 1674 703 1668 714 1659 723 1648 729 1636 733"/><path d="M 2181 476 2169 476 2157 473 2147 467 2140 460 1950 460 1950 460 1942 459 1937 457 1936 458 1924 458 1912 454 1901 448 1892 439 1886 428 1882 416 1882 404 1886 392 1892 381 1901 372 1912 366 1914 365 1914 360 1912 359 1901 353 1892 344 1886 333 1882 321 1882 309 1886 297 1892 286 1901 277 1912 271 1924 267 1936 267 1948 271 1959 277 1968 286 1974 297 1978 309 1978 320 1983 325 2090 325 2097 318 2107 312 2119 309 2131 309 2143 312 2153 318 2162 327 2168 337 2171 349 2171 361 2168 373 2164 380 2167 385 2169 384 2181 384 2193 387 2203 393 2212 402 2218 412 2221 424 2221 436 2218 448 2212 458 2203 467 2193 473 2181 476"/><path d="M 2230 391 2230 360 2261 360 2259 369 2254 377 2247 384 2239 389 2230 391"/><path d="M 2220 391 2211 389 2203 384 2196 377 2191 369 2189 360 2220 360 2220 391"/><path d="M 2261 350 2230 350 2230 319 2239 321 2247 326 2254 333 2259 341 2261 350"/><path d="M 2220 350 2189 350 2191 341 2196 333 2203 326 2211 321 2220 319 2220 350"/><path d="M 2220 656 2211 654 2203 649 2196 642 2191 634 2189 625 2220 625 2220 656"/><path d="M 2220 615 2189 615 2191 606 2196 598 2203 591 2211 586 2220 584 2220 615"/></g></mask><circle cx="0" cy="0" r="29.5" id="A6agnqb7-szpBQX2XWKZ_pad-28"/><rect x="-29.5" y="-29.5" width="59" height="59" id="A6agnqb7-szpBQX2XWKZ_pad-29"/><rect x="-30.5" y="-30.5" width="61" height="61" id="A6agnqb7-szpBQX2XWKZ_pad-30"/><circle cx="0" cy="0" r="30.5" id="A6agnqb7-szpBQX2XWKZ_pad-31"/><rect x="-29.5" y="-29.5" width="59" height="59" id="A6agnqb7-szpBQX2XWKZ_pad-32"/><circle cx="0" cy="0" r="27.5" id="A6agnqb7-szpBQX2XWKZ_pad-33"/><circle cx="0" cy="0" r="26" id="A6agnqb7-szpBQX2XWKZ_pad-34"/><rect x="-29.5" y="-29.5" width="59" height="59" id="A6agnqb7-szpBQX2XWKZ_pad-35"/><circle cx="0" cy="0" r="29.5" id="A6agnqb7-szpBQX2XWKZ_pad-36"/><circle cx="0" cy="0" r="26.5" id="A6agnqb7-szpBQX2XWKZ_pad-37"/><rect x="-26.5" y="-26.5" width="53" height="53" id="A6agnqb7-szpBQX2XWKZ_pad-38"/><circle cx="0" cy="0" r="80" id="A6agnqb7-szpBQX2XWKZ_pad-39"/></defs><g transform="translate(0,2630) scale(1,-1)" fill="currentColor" stroke="currentColor"><g mask="url(#A6agnqb7-szpBQX2XWKZ_clear-3)"><g mask="url(#A6agnqb7-szpBQX2XWKZ_clear-2)"><g mask="url(#A6agnqb7-szpBQX2XWKZ_clear-1)"><path d="M 2745 2628 2745 10 155 10 154 15 157 16 174 27 188 41 199 58 206 76 210 95 210 115 206 134 199 152 188 169 174 183 157 194 139 201 120 205 100 205 81 201 63 194 46 183 32 169 21 152 14 134 10 115 10 95 14 76 21 58 32 41 46 27 63 16 66 15 65 10 20 10 10 0 5 5 5 2630 2740 2630 2740 2630 2745 2628"/></g><path d="M 1434 2119 1431 2114 1425 2116 1425 2116 1425 2080 1461 2080 1461 2080 1459 2086 1464 2089 1592 1960 1592 1959 1586 1948 1582 1936 1582 1924 1586 1912 1592 1901 1601 1892 1612 1886 1614 1885 1614 1880 1612 1879 1601 1873 1592 1864 1586 1853 1582 1841 1582 1829 1586 1817 1592 1806 1601 1797 1612 1791 1624 1787 1635 1787 1649 1773 1646 1769 1644 1770 1635 1773 1635 1740 1668 1740 1665 1749 1664 1751 1668 1754 1709 1714 1709 1714 1715 1709 1722 1706 1730 1705 1730 1705 1893 1705 1901 1697 1904 1695 1902 1690 1862 1690 1854 1689 1847 1686 1840 1681 1840 1681 1829 1670 1824 1663 1821 1656 1820 1648 1820 1502 1821 1494 1824 1487 1829 1480 1840 1469 1840 1469 1847 1464 1854 1461 1862 1460 1893 1460 1901 1452 1908 1448 1908 1442 1901 1438 1893 1430 1733 1430 1678 1485 1678 1496 1674 1508 1668 1519 1659 1528 1656 1530 1656 1535 1659 1537 1668 1546 1674 1557 1678 1569 1678 1581 1674 1593 1668 1604 1659 1613 1648 1619 1636 1623 1624 1623 1612 1619 1601 1613 1592 1604 1586 1593 1582 1581 1582 1569 1586 1557 1592 1546 1601 1537 1604 1535 1604 1530 1601 1528 1592 1519 1586 1508 1582 1496 1582 1484 1586 1472 1592 1461 1601 1452 1612 1446 1624 1442 1625 1442 1625 1438 1616 1435 1607 1430 1600 1423 1595 1414 1592 1405 1630 1405 1630 1395 1592 1395 1595 1386 1600 1377 1604 1373 1602 1368 1471 1368 1471 1368 1471 1382 1467 1395 1461 1406 1451 1416 1440 1422 1427 1426 1413 1426 1400 1422 1389 1416 1379 1406 1373 1395 1369 1382 1369 1368 1373 1355 1379 1344 1389 1334 1400 1328 1401 1327 1401 1322 1400 1322 1389 1316 1379 1306 1373 1295 1369 1282 1369 1268 1373 1255 1379 1244 1389 1234 1400 1228 1401 1227 1401 1222 1400 1222 1389 1216 1379 1206 1373 1195 1369 1182 1369 1168 1373 1155 1379 1144 1389 1134 1400 1128 1401 1128 1401 1122 1400 1122 1389 1116 1379 1106 1373 1095 1369 1082 1369 1068 1373 1055 1379 1044 1389 1034 1400 1028 1401 1028 1401 1023 1400 1022 1389 1016 1379 1006 1373 995 1369 982 1369 968 1373 955 1379 944 1389 934 1400 928 1401 928 1401 923 1400 922 1389 916 1379 906 1373 895 1369 882 1369 868 1373 855 1379 844 1389 834 1400 828 1401 827 1401 822 1400 822 1389 816 1379 806 1373 795 1369 782 1369 768 1373 755 1379 744 1389 734 1400 728 1401 728 1401 723 1400 722 1389 716 1379 706 1373 695 1369 682 1369 668 1373 655 1379 644 1389 634 1400 628 1401 627 1401 623 1400 622 1389 616 1379 606 1373 595 1369 582 1369 568 1373 555 1379 544 1389 534 1400 528 1401 527 1401 522 1400 522 1389 516 1379 506 1373 495 1369 482 1369 468 1373 455 1379 444 1389 434 1400 428 1401 428 1401 423 1400 422 1389 416 1379 406 1373 395 1369 382 1369 368 1373 355 1379 344 1389 334 1400 328 1401 327 1401 322 1400 322 1389 316 1379 306 1373 295 1369 282 1369 279 1365 277 1295 347 1295 1407 1376 1489 1381 1486 1379 1480 1379 1480 1415 1480 1415 1516 1415 1516 1409 1514 1406 1519 1412 1525 1413 1524 1427 1524 1440 1528 1451 1534 1461 1544 1467 1555 1471 1568 1471 1582 1467 1595 1461 1606 1451 1616 1440 1622 1439 1622 1439 1628 1440 1628 1451 1634 1461 1644 1467 1655 1471 1668 1471 1682 1467 1695 1461 1706 1451 1716 1440 1722 1439 1722 1439 1727 1440 1728 1451 1734 1461 1744 1467 1755 1471 1768 1471 1782 1467 1795 1461 1806 1451 1816 1440 1822 1439 1822 1439 1827 1440 1828 1451 1834 1461 1844 1467 1855 1471 1868 1471 1882 1467 1895 1461 1906 1451 1916 1440 1922 1439 1923 1439 1928 1440 1928 1451 1934 1461 1944 1467 1955 1471 1968 1471 1982 1467 1995 1461 2006 1451 2016 1440 2022 1427 2026 1413 2026 1400 2022 1389 2016 1379 2006 1373 1995 1369 1982 1369 1968 1373 1955 1379 1944 1389 1934 1400 1928 1401 1928 1401 1923 1400 1922 1389 1916 1379 1906 1373 1895 1369 1882 1369 1868 1373 1855 1379 1844 1389 1834 1400 1828 1401 1827 1401 1822 1400 1822 1389 1816 1379 1806 1373 1795 1369 1782 1369 1768 1373 1755 1379 1744 1389 1734 1400 1728 1401 1727 1401 1722 1400 1722 1389 1716 1379 1706 1373 1695 1369 1682 1369 1668 1373 1655 1379 1644 1389 1634 1400 1628 1401 1628 1401 1622 1400 1622 1389 1616 1379 1606 1373 1595 1369 1582 1369 1568 1370 1567 1244 1441 1239 1435 1236 1428 1235 1420 1235 334 1236 326 1239 319 1244 313 1366 190 1364 185 383 185 194 374 194 450 213 450 213 550 114 550 114 468 109 467 101 496 92 541 87 586 85 630 85 632 85 1085 201 1085 209 1086 216 1089 222 1094 272 1144 277 1150 280 1157 281 1165 281 1165 281 1293 365 1377 369 1375 369 1368 373 1355 379 1344 389 1334 400 1328 401 1327 401 1322 400 1322 389 1316 379 1306 373 1295 369 1282 369 1268 373 1255 379 1244 389 1234 400 1228 401 1227 401 1222 400 1222 389 1216 379 1206 373 1195 369 1182 369 1168 373 1155 379 1144 389 1134 400 1128 401 1128 401 1122 400 1122 389 1116 379 1106 373 1095 369 1082 369 1068 373 1055 379 1044 389 1034 400 1028 401 1028 401 1023 400 1022 389 1016 379 1006 373 995 369 982 369 968 373 955 379 944 389 934 400 928 401 928 401 923 400 922 389 916 379 906 373 895 369 882 369 868 373 855 379 844 389 834 400 828 413 824 427 824 440 828 451 834 461 844 467 855 471 868 471 882 467 895 461 906 451 916 440 922 439 923 439 928 440 928 451 934 461 944 467 955 471 968 471 982 467 995 461 1006 451 1016 440 1022 439 1023 439 1028 440 1028 451 1034 461 1044 467 1055 471 1068 471 1082 467 1095 461 1106 451 1116 440 1122 439 1122 439 1128 440 1128 451 1134 461 1144 467 1155 471 1168 471 1182 467 1195 461 1206 451 1216 440 1222 439 1222 439 1227 440 1228 451 1234 461 1244 467 1255 471 1268 471 1282 467 1295 461 1306 451 1316 440 1322 439 1322 439 1327 440 1328 451 1334 461 1344 467 1355 471 1368 471 1382 467 1395 461 1406 451 1416 440 1422 439 1423 439 1428 440 1428 451 1434 461 1444 467 1455 471 1468 471 1482 467 1495 461 1506 451 1516 440 1522 439 1523 439 1528 440 1528 451 1534 461 1544 467 1555 471 1568 471 1582 467 1595 461 1606 451 1616 440 1622 439 1622 439 1628 440 1628 451 1634 461 1644 467 1655 471 1668 471 1682 467 1695 461 1706 451 1716 440 1722 439 1722 439 1727 440 1728 451 1734 461 1744 467 1755 471 1768 471 1782 467 1795 461 1806 451 1816 440 1822 439 1822 439 1827 440 1828 451 1834 461 1844 467 1855 471 1868 471 1882 467 1895 461 1906 451 1916 440 1922 439 1923 439 1928 440 1928 451 1934 461 1944 467 1955 471 1968 471 1982 467 1995 461 2006 451 2016 445 2019 446 2024 471 2024 471 2083 513 2125 1427 2125 1434 2119"/><path d="M 2102 1840 2097 1837 2088 1828 2082 1818 2079 1806 2079 1794 2082 1782 2088 1772 2090 1770 2088 1765 1967 1765 1959 1773 1948 1779 1936 1783 1936 1787 1948 1791 1959 1797 1968 1806 1974 1817 1978 1829 1978 1840 1983 1845 2100 1845 2102 1840"/><path d="M 2129 1603 2129 1594 2132 1582 2136 1575 2133 1570 2131 1571 2122 1571 2106 1586 2100 1591 2093 1594 2085 1595 1973 1595 1968 1604 1959 1613 1948 1619 1936 1623 1924 1623 1912 1619 1901 1613 1892 1604 1886 1593 1885 1592 1880 1592 1880 1630 2102 1630 2129 1603"/><path d="M 2485 1270 2485 1270 2485 1257 2489 1244 2495 1233 2504 1224 2516 1217 2517 1217 2517 1212 2516 1211 2504 1205 2495 1196 2489 1184 2485 1172 2485 1158 2489 1146 2495 1134 2504 1125 2516 1119 2517 1118 2517 1113 2516 1113 2504 1106 2495 1097 2489 1086 2485 1073 2485 1060 2489 1047 2489 1047 2485 1044 2474 1054 2468 1059 2461 1062 2453 1063 1647 1063 1627 1082 1629 1087 1636 1087 1648 1091 1659 1097 1668 1106 1674 1117 1678 1129 1678 1141 1674 1153 1668 1164 1659 1173 1648 1179 1646 1180 1646 1185 1648 1186 1659 1192 1668 1201 1674 1212 1678 1224 1678 1236 1674 1248 1668 1259 1659 1268 1648 1274 1636 1278 1624 1278 1612 1274 1601 1268 1592 1259 1586 1248 1582 1236 1582 1224 1586 1212 1592 1201 1601 1192 1612 1186 1614 1185 1614 1180 1612 1179 1601 1173 1592 1164 1586 1153 1582 1141 1582 1134 1577 1132 1574 1135 1469 1263 1471 1268 1471 1282 1467 1295 1463 1303 1465 1308 2448 1308 2485 1270"/><path d="M 1529 1096 1530 1095 1531 1094 1613 1012 1619 1007 1626 1004 1634 1003 1939 1003 1940 998 1939 996 1935 993 1924 993 1912 989 1901 983 1892 974 1886 963 1882 951 1882 939 1886 927 1892 916 1901 907 1912 901 1914 900 1914 895 1912 894 1901 888 1892 879 1886 868 1882 856 1882 844 1886 832 1892 821 1901 812 1912 806 1924 802 1936 802 1948 806 1959 812 1968 821 1974 832 1978 844 1978 855 1993 870 2090 870 2097 863 2107 857 2119 854 2131 854 2143 857 2153 863 2162 872 2168 882 2171 894 2171 906 2168 918 2164 925 2167 930 2169 929 2181 929 2193 932 2203 938 2212 947 2218 957 2221 969 2221 981 2218 993 2215 998 2217 1003 2440 1003 2565 878 2565 858 2485 858 2485 759 2510 759 2511 754 2504 750 2495 741 2495 740 2383 740 2350 772 2344 777 2337 780 2329 781 2107 781 2099 780 2092 777 2085 772 2085 772 2074 761 2069 754 2066 747 2065 739 2065 678 2066 670 2069 663 2074 657 2075 655 2073 650 2008 650 1978 680 1978 691 1974 703 1968 714 1959 723 1948 729 1936 733 1924 733 1912 729 1901 723 1892 714 1886 703 1882 691 1882 679 1886 667 1892 656 1901 647 1912 641 1924 637 1924 633 1912 629 1901 623 1892 614 1886 603 1882 591 1882 579 1886 567 1892 556 1901 547 1912 541 1924 537 1935 537 1969 504 1975 499 1982 496 1990 495 2241 495 2249 496 2256 499 2262 504 2302 544 2302 544 2307 550 2310 557 2311 565 2311 683 2310 691 2307 698 2302 705 2302 705 2291 716 2292 721 2316 721 2349 689 2349 689 2355 684 2362 681 2370 680 2370 680 2495 680 2495 679 2504 670 2516 664 2517 663 2517 658 2516 658 2504 651 2495 642 2489 631 2485 618 2485 605 2489 592 2495 581 2504 572 2516 565 2517 565 2517 560 2516 559 2504 553 2495 544 2489 532 2485 520 2485 507 2485 506 2124 145 1608 145 1606 150 1606 150 1611 157 1614 164 1615 172 1615 257 1625 267 1636 267 1648 271 1659 277 1668 286 1674 297 1678 309 1678 321 1674 333 1668 344 1659 353 1648 359 1646 360 1646 365 1648 366 1659 372 1668 381 1674 392 1678 404 1678 416 1674 428 1668 439 1659 448 1648 454 1636 458 1624 458 1612 454 1601 448 1592 439 1586 428 1582 416 1582 404 1586 392 1592 381 1601 372 1612 366 1614 365 1614 360 1612 359 1601 353 1592 344 1586 333 1582 321 1582 312 1580 310 1575 312 1575 846 1577 848 1582 845 1582 844 1586 832 1592 821 1601 812 1612 806 1624 802 1636 802 1648 806 1659 812 1668 821 1674 832 1678 844 1678 856 1674 868 1668 879 1659 888 1648 894 1646 895 1646 900 1648 901 1659 907 1668 916 1674 927 1678 939 1678 951 1674 963 1668 974 1659 983 1648 989 1636 993 1624 993 1612 989 1601 983 1592 974 1586 963 1582 951 1582 940 1524 881 1519 875 1516 868 1515 860 1515 273 1467 225 1445 225 1444 230 1451 234 1461 244 1467 255 1471 268 1471 282 1467 295 1461 306 1451 316 1440 322 1439 322 1439 327 1440 328 1451 334 1461 344 1467 355 1471 368 1471 382 1467 395 1461 406 1451 416 1440 422 1439 423 1439 428 1440 428 1451 434 1461 444 1467 455 1471 468 1471 482 1467 495 1461 506 1451 516 1440 522 1439 522 1439 527 1440 528 1451 534 1461 544 1467 555 1471 568 1471 582 1467 595 1461 606 1451 616 1440 622 1439 623 1439 627 1440 628 1451 634 1461 644 1467 655 1471 668 1471 682 1467 695 1461 706 1451 716 1440 722 1439 723 1439 728 1440 728 1451 734 1461 744 1467 755 1471 768 1471 782 1467 795 1461 806 1451 816 1440 822 1439 822 1439 827 1440 828 1451 834 1461 844 1467 855 1471 868 1471 882 1467 895 1461 906 1451 916 1440 922 1439 923 1439 928 1440 928 1451 934 1461 944 1467 955 1471 968 1471 982 1467 995 1461 1006 1451 1016 1440 1022 1439 1023 1439 1028 1440 1028 1451 1034 1461 1044 1467 1055 1471 1068 1471 1082 1467 1095 1461 1106 1451 1116 1440 1122 1439 1122 1439 1128 1440 1128 1451 1134 1461 1144 1467 1155 1469 1161 1474 1162 1529 1096"/><path d="M 2251 652 2246 650 2239 654 2230 656 2230 620 2230 584 2239 586 2246 590 2251 588 2251 578 2228 555 2003 555 1978 580 1978 590 1981 592 1982 593 1987 591 1995 590 1995 590 2090 590 2097 583 2107 577 2119 574 2131 574 2143 577 2153 583 2162 592 2168 602 2171 614 2171 626 2168 638 2164 645 2167 650 2169 649 2181 649 2193 652 2203 658 2210 665 2251 665 2251 652"/></g><path d="M 2275 1148 2264 1137 2153 1137 2151 1142 2153 1143 2162 1152 2168 1162 2171 1174 2171 1186 2168 1198 2164 1205 2167 1210 2169 1209 2181 1209 2193 1212 2203 1218 2210 1225 2275 1225 2275 1148"/></g><path d="M 55 632 A 611 611 0 0 1 312 134 19.4164878 19.4164878 0 0 1 323 130 M 310 2475 2214 2475 M 135 2300 310 2475 M 135 1213 135 2300 M 55 632 55 1103 M 67 1115 201 1115 M 55 1103 67 1115 M 164 361 370 155 1568 155 M 164 361 164 500 M 2137 115 2535 513 M 323 130 338 115 2137 115 M 1265 334 1404 195 M 1568 155 1585 172 M 1480 195 1545 260 M 1404 195 1480 195 M 1585 172 1585 270 1630 315 M 1545 260 1545 860 1630 945 M 1265 334 1265 1420 1420 1575 M 2214 2475 2535 2154 M 2122 2267 2122 2350 M 2081 2226 2122 2267 M 1926 2226 2081 2226 M 1925 2105 2110 2105 M 2220 2215 2220 2350 M 2110 2105 2220 2215 M 2085 1565 2125 1525 M 1937 1568 1956 1568 1959 1565 M 1930 1575 1937 1568 M 1959 1565 2085 1565 M 1850 1502 1862 1490 M 1850 1502 1850 1648 M 1862 1490 1930 1490 M 1862 1660 2115 1660 M 1850 1648 1862 1660 M 2115 1660 2175 1600 M 2305 1135 2305 1243 M 2175 1255 2293 1255 2305 1243 M 2277 1107 2305 1135 M 1958 1107 2277 1107 M 2107 751 2329 751 M 2095 739 2107 751 M 2095 678 2125 648 M 2095 678 2095 739 M 2125 620 2125 648 M 2329 751 2370 710 2535 710 M 2281 565 2281 683 M 2269 695 2281 683 M 2175 695 2269 695 M 1995 620 2125 620 M 1930 685 1995 620 M 1980 1180 2125 1180 M 1930 1230 1980 1180 M 1720 1400 1930 1400 M 1630 1490 1720 1400 M 1730 1735 1930 1735 M 1630 1835 1730 1735 M 1970 355 2125 355 M 1930 315 1970 355 M 1980 900 2125 900 M 1930 850 1980 900 M 1930 1135 1958 1107 M 1950 430 2175 430 M 1930 410 1950 430 M 1960 975 2175 975 M 1930 945 1960 975 M 1970 1875 2175 1875 M 1930 1835 1970 1875 M 2535 612 2595 672 2595 891 M 2453 1033 2595 891 M 1634 1033 2453 1033 M 1552 1115 1634 1033 M 1420 1275 1552 1115 M 2460 1338 2535 1263 M 1457 1338 2460 1338 M 1420 1375 1457 1338 M 2241 525 2281 565 M 1990 525 2241 525 M 1930 585 1990 525 M 201 1115 251 1165 251 1306 420 1475 M 420 2075 500 2155 1440 2155 1630 1965 M 1630 1930 1630 1965 M 1630 1930 1926 2226 M 2412 1735 2535 1858 M 1930 1735 2412 1735" fill="none" stroke-width="20"/><use xlink:href="#A6agnqb7-szpBQX2XWKZ_pad-28" x="2535" y="1957"/><use xlink:href="#A6agnqb7-szpBQX2XWKZ_pad-28" x="2535" y="1858"/><use xlink:href="#A6agnqb7-szpBQX2XWKZ_pad-28" x="2535" y="2055"/><use xlink:href="#A6agnqb7-szpBQX2XWKZ_pad-28" x="2535" y="1760"/><use xlink:href="#A6agnqb7-szpBQX2XWKZ_pad-28" x="2535" y="1263"/><use xlink:href="#A6agnqb7-szpBQX2XWKZ_pad-28" x="2535" y="1165"/><use xlink:href="#A6agnqb7-szpBQX2XWKZ_pad-28" x="2535" y="1362"/><use xlink:href="#A6agnqb7-szpBQX2XWKZ_pad-28" x="2535" y="1067"/><use xlink:href="#A6agnqb7-szpBQX2XWKZ_pad-28" x="2023" y="2350"/><use xlink:href="#A6agnqb7-szpBQX2XWKZ_pad-28" x="2122" y="2350"/><use xlink:href="#A6agnqb7-szpBQX2XWKZ_pad-28" x="1925" y="2350"/><use xlink:href="#A6agnqb7-szpBQX2XWKZ_pad-28" x="2220" y="2350"/><use xlink:href="#A6agnqb7-szpBQX2XWKZ_pad-28" x="2535" y="612"/><use xlink:href="#A6agnqb7-szpBQX2XWKZ_pad-28" x="2535" y="513"/><use xlink:href="#A6agnqb7-szpBQX2XWKZ_pad-28" x="2535" y="710"/><use xlink:href="#A6agnqb7-szpBQX2XWKZ_pad-28" x="2535" y="415"/><use xlink:href="#A6agnqb7-szpBQX2XWKZ_pad-29" x="2535" y="2154"/><use xlink:href="#A6agnqb7-szpBQX2XWKZ_pad-29" x="2535" y="1460"/><use xlink:href="#A6agnqb7-szpBQX2XWKZ_pad-29" x="2535" y="808"/><use xlink:href="#A6agnqb7-szpBQX2XWKZ_pad-30" x="420" y="2075"/><use xlink:href="#A6agnqb7-szpBQX2XWKZ_pad-31" x="420" y="1975"/><use xlink:href="#A6agnqb7-szpBQX2XWKZ_pad-31" x="420" y="275"/><use xlink:href="#A6agnqb7-szpBQX2XWKZ_pad-31" x="420" y="1875"/><use xlink:href="#A6agnqb7-szpBQX2XWKZ_pad-31" x="420" y="1775"/><use xlink:href="#A6agnqb7-szpBQX2XWKZ_pad-31" x="420" y="1675"/><use xlink:href="#A6agnqb7-szpBQX2XWKZ_pad-31" x="420" y="1575"/><use xlink:href="#A6agnqb7-szpBQX2XWKZ_pad-31" x="420" y="1475"/><use xlink:href="#A6agnqb7-szpBQX2XWKZ_pad-31" x="420" y="1375"/><use xlink:href="#A6agnqb7-szpBQX2XWKZ_pad-31" x="420" y="1275"/><use xlink:href="#A6agnqb7-szpBQX2XWKZ_pad-31" x="420" y="1175"/><use xlink:href="#A6agnqb7-szpBQX2XWKZ_pad-31" x="420" y="1075"/><use xlink:href="#A6agnqb7-szpBQX2XWKZ_pad-31" x="420" y="975"/><use xlink:href="#A6agnqb7-szpBQX2XWKZ_pad-31" x="420" y="875"/><use xlink:href="#A6agnqb7-szpBQX2XWKZ_pad-31" x="420" y="775"/><use xlink:href="#A6agnqb7-szpBQX2XWKZ_pad-31" x="420" y="675"/><use xlink:href="#A6agnqb7-szpBQX2XWKZ_pad-31" x="420" y="575"/><use xlink:href="#A6agnqb7-szpBQX2XWKZ_pad-31" x="420" y="475"/><use xlink:href="#A6agnqb7-szpBQX2XWKZ_pad-31" x="420" y="375"/><use xlink:href="#A6agnqb7-szpBQX2XWKZ_pad-31" x="1420" y="2075"/><use xlink:href="#A6agnqb7-szpBQX2XWKZ_pad-31" x="1420" y="1975"/><use xlink:href="#A6agnqb7-szpBQX2XWKZ_pad-31" x="1420" y="1875"/><use xlink:href="#A6agnqb7-szpBQX2XWKZ_pad-31" x="1420" y="1775"/><use xlink:href="#A6agnqb7-szpBQX2XWKZ_pad-31" x="1420" y="1675"/><use xlink:href="#A6agnqb7-szpBQX2XWKZ_pad-31" x="1420" y="1575"/><use xlink:href="#A6agnqb7-szpBQX2XWKZ_pad-31" x="1420" y="1475"/><use xlink:href="#A6agnqb7-szpBQX2XWKZ_pad-31" x="1420" y="1375"/><use xlink:href="#A6agnqb7-szpBQX2XWKZ_pad-31" x="1420" y="1275"/><use xlink:href="#A6agnqb7-szpBQX2XWKZ_pad-31" x="1420" y="1175"/><use xlink:href="#A6agnqb7-szpBQX2XWKZ_pad-31" x="1420" y="1075"/><use xlink:href="#A6agnqb7-szpBQX2XWKZ_pad-31" x="1420" y="975"/><use xlink:href="#A6agnqb7-szpBQX2XWKZ_pad-31" x="1420" y="875"/><use xlink:href="#A6agnqb7-szpBQX2XWKZ_pad-31" x="1420" y="775"/><use xlink:href="#A6agnqb7-szpBQX2XWKZ_pad-31" x="1420" y="675"/><use xlink:href="#A6agnqb7-szpBQX2XWKZ_pad-31" x="1420" y="575"/><use xlink:href="#A6agnqb7-szpBQX2XWKZ_pad-31" x="1420" y="475"/><use xlink:href="#A6agnqb7-szpBQX2XWKZ_pad-31" x="1420" y="375"/><use xlink:href="#A6agnqb7-szpBQX2XWKZ_pad-31" x="1420" y="275"/><use xlink:href="#A6agnqb7-szpBQX2XWKZ_pad-32" x="1827" y="2350"/><use xlink:href="#A6agnqb7-szpBQX2XWKZ_pad-33" x="1625" y="2105"/><use xlink:href="#A6agnqb7-szpBQX2XWKZ_pad-33" x="1925" y="2105"/><use xlink:href="#A6agnqb7-szpBQX2XWKZ_pad-33" x="1930" y="1490"/><use xlink:href="#A6agnqb7-szpBQX2XWKZ_pad-33" x="1630" y="1490"/><use xlink:href="#A6agnqb7-szpBQX2XWKZ_pad-33" x="1630" y="1230"/><use xlink:href="#A6agnqb7-szpBQX2XWKZ_pad-33" x="1930" y="1230"/><use xlink:href="#A6agnqb7-szpBQX2XWKZ_pad-33" x="1930" y="685"/><use xlink:href="#A6agnqb7-szpBQX2XWKZ_pad-33" x="1630" y="685"/><use xlink:href="#A6agnqb7-szpBQX2XWKZ_pad-33" x="1930" y="585"/><use xlink:href="#A6agnqb7-szpBQX2XWKZ_pad-33" x="1630" y="585"/><use xlink:href="#A6agnqb7-szpBQX2XWKZ_pad-33" x="1930" y="945"/><use xlink:href="#A6agnqb7-szpBQX2XWKZ_pad-33" x="1630" y="945"/><use xlink:href="#A6agnqb7-szpBQX2XWKZ_pad-33" x="1930" y="850"/><use xlink:href="#A6agnqb7-szpBQX2XWKZ_pad-33" x="1630" y="850"/><use xlink:href="#A6agnqb7-szpBQX2XWKZ_pad-33" x="1630" y="315"/><use xlink:href="#A6agnqb7-szpBQX2XWKZ_pad-33" x="1930" y="315"/><use xlink:href="#A6agnqb7-szpBQX2XWKZ_pad-33" x="1930" y="410"/><use xlink:href="#A6agnqb7-szpBQX2XWKZ_pad-33" x="1630" y="410"/><use xlink:href="#A6agnqb7-szpBQX2XWKZ_pad-33" x="1630" y="1930"/><use xlink:href="#A6agnqb7-szpBQX2XWKZ_pad-33" x="1930" y="1930"/><use xlink:href="#A6agnqb7-szpBQX2XWKZ_pad-33" x="1930" y="1835"/><use xlink:href="#A6agnqb7-szpBQX2XWKZ_pad-33" x="1630" y="1835"/><use xlink:href="#A6agnqb7-szpBQX2XWKZ_pad-33" x="1930" y="1735"/><use xlink:href="#A6agnqb7-szpBQX2XWKZ_pad-33" x="1630" y="1735"/><use xlink:href="#A6agnqb7-szpBQX2XWKZ_pad-33" x="1630" y="1575"/><use xlink:href="#A6agnqb7-szpBQX2XWKZ_pad-33" x="1930" y="1575"/><use xlink:href="#A6agnqb7-szpBQX2XWKZ_pad-33" x="1930" y="1400"/><use xlink:href="#A6agnqb7-szpBQX2XWKZ_pad-33" x="1630" y="1400"/><use xlink:href="#A6agnqb7-szpBQX2XWKZ_pad-33" x="1930" y="1135"/><use xlink:href="#A6agnqb7-szpBQX2XWKZ_pad-33" x="1630" y="1135"/><use xlink:href="#A6agnqb7-szpBQX2XWKZ_pad-34" x="2225" y="355"/><use xlink:href="#A6agnqb7-szpBQX2XWKZ_pad-34" x="2175" y="430"/><use xlink:href="#A6agnqb7-szpBQX2XWKZ_pad-34" x="2125" y="355"/><use xlink:href="#A6agnqb7-szpBQX2XWKZ_pad-34" x="2225" y="1800"/><use xlink:href="#A6agnqb7-szpBQX2XWKZ_pad-34" x="2175" y="1875"/><use xlink:href="#A6agnqb7-szpBQX2XWKZ_pad-34" x="2125" y="1800"/><use xlink:href="#A6agnqb7-szpBQX2XWKZ_pad-34" x="2225" y="1525"/><use xlink:href="#A6agnqb7-szpBQX2XWKZ_pad-34" x="2175" y="1600"/><use xlink:href="#A6agnqb7-szpBQX2XWKZ_pad-34" x="2125" y="1525"/><use xlink:href="#A6agnqb7-szpBQX2XWKZ_pad-34" x="2225" y="1180"/><use xlink:href="#A6agnqb7-szpBQX2XWKZ_pad-34" x="2175" y="1255"/><use xlink:href="#A6agnqb7-szpBQX2XWKZ_pad-34" x="2125" y="1180"/><use xlink:href="#A6agnqb7-szpBQX2XWKZ_pad-34" x="2225" y="620"/><use xlink:href="#A6agnqb7-szpBQX2XWKZ_pad-34" x="2175" y="695"/><use xlink:href="#A6agnqb7-szpBQX2XWKZ_pad-34" x="2125" y="620"/><use xlink:href="#A6agnqb7-szpBQX2XWKZ_pad-34" x="2225" y="900"/><use xlink:href="#A6agnqb7-szpBQX2XWKZ_pad-34" x="2175" y="975"/><use xlink:href="#A6agnqb7-szpBQX2XWKZ_pad-34" x="2125" y="900"/><use xlink:href="#A6agnqb7-szpBQX2XWKZ_pad-35" x="164" y="890"/><use xlink:href="#A6agnqb7-szpBQX2XWKZ_pad-35" x="164" y="500"/><use xlink:href="#A6agnqb7-szpBQX2XWKZ_pad-36" x="164" y="790"/><use xlink:href="#A6agnqb7-szpBQX2XWKZ_pad-36" x="164" y="600"/><use xlink:href="#A6agnqb7-szpBQX2XWKZ_pad-37" x="135" y="1017"/><use xlink:href="#A6agnqb7-szpBQX2XWKZ_pad-38" x="135" y="1213"/><use xlink:href="#A6agnqb7-szpBQX2XWKZ_pad-39" x="125" y="2510"/><use xlink:href="#A6agnqb7-szpBQX2XWKZ_pad-39" x="2640" y="140"/><use xlink:href="#A6agnqb7-szpBQX2XWKZ_pad-39" x="110" y="105"/><use xlink:href="#A6agnqb7-szpBQX2XWKZ_pad-39" x="2635" y="2515"/></g></svg>